<svg width="167" height="47" viewBox="0 0 167 47" fill="none" xmlns="http://www.w3.org/2000/svg">
<path d="M36.7789 6.48116C35.8054 5.66862 34.5636 4.82542 33.1992 4.04354C32.7162 3.76758 32.1413 3.77525 31.6584 4.0512C31.1755 4.32716 30.8919 4.82542 30.8919 5.385V10.2449C29.6884 9.67 27.5037 8.76547 24.9741 8.31321C24.9051 8.29788 24.8591 8.24422 24.8591 8.16756V2.21149C24.8591 1.33763 24.2382 0.586409 23.3797 0.425434C20.2828 -0.141811 17.4313 -0.141811 14.3268 0.425434C13.4682 0.578743 12.8473 1.32996 12.8473 2.21149V8.16756C12.8473 8.23655 12.8013 8.29788 12.7324 8.31321C10.2027 8.7578 8.01809 9.67 6.81461 10.2449V5.385C6.81461 4.83308 6.53098 4.33483 6.04806 4.0512C5.56513 3.76758 4.99022 3.76758 4.5073 4.04354C3.15051 4.81775 1.92403 5.65329 0.942854 6.46583C0.344947 6.96408 0 7.6923 0 8.46652V45.3681C0 45.7667 0.176306 46.1347 0.490591 46.3876C0.720555 46.5716 1.00418 46.6712 1.29546 46.6712C1.38745 46.6712 1.4871 46.6636 1.57909 46.6406C3.59511 46.1883 6.51565 45.7514 9.58184 45.4524C10.4327 45.3681 11.0843 44.6629 11.0843 43.8044V19.8038C11.0843 19.2978 11.3219 19.0602 11.4369 18.9529C12.0195 18.3703 13.085 17.8721 14.5874 17.4811C15.6299 17.2052 16.7874 17.0672 18.3358 17.0135C21.0417 16.9292 23.5177 17.5808 25.4877 18.9146C25.6717 19.0372 25.848 19.1675 26.0243 19.3055C28.3086 21.0686 29.2514 24.5487 28.2549 27.5842C27.3044 30.4971 24.5678 31.8769 19.6543 31.9305C19.0717 31.9382 18.5964 32.4211 18.5964 33.0037V43.1911C18.5964 43.6204 18.7651 44.019 19.064 44.3256C19.363 44.6322 19.7693 44.7932 20.1985 44.7932H20.2062C26.3616 44.7242 33.0995 45.9354 36.1197 46.6329C36.5106 46.7249 36.9093 46.6329 37.2159 46.3876C37.5302 46.1423 37.7065 45.7667 37.7065 45.3681V16.7452V8.48951C37.7065 7.69997 37.3692 6.97175 36.7789 6.48116Z" fill="#78CBFA"/>
<path fill-rule="evenodd" clip-rule="evenodd" d="M147.216 25.6448C146.212 24.9242 144.518 24.4336 142.149 24.1653C141.022 24.0427 140.263 23.92 139.888 23.7974C139.512 23.6824 139.32 23.5138 139.32 23.3068C139.32 22.9158 139.803 22.7165 140.777 22.7165C141.474 22.7165 141.996 22.8699 142.341 23.1688C142.532 23.3298 142.755 23.4141 143.015 23.4141H147.684C147.844 23.4141 147.967 23.3681 148.067 23.2838C148.159 23.1995 148.205 23.0845 148.205 22.9388C148.205 21.8733 147.523 20.8692 146.166 19.911C144.801 18.9528 143.023 18.4775 140.815 18.4775C138.608 18.4775 136.845 18.9221 135.526 19.8113C134.208 20.7005 133.548 21.8657 133.548 23.2991C133.548 25.8594 135.595 27.3772 139.696 27.8524C140.984 27.9904 141.842 28.136 142.279 28.2817C142.716 28.4273 142.931 28.6266 142.931 28.8796C142.931 29.2859 142.241 29.4852 140.869 29.4852C139.872 29.4852 139.167 29.3012 138.761 28.9332C138.569 28.7569 138.324 28.665 138.025 28.665H133.571C133.234 28.665 133.073 28.8259 133.073 29.1402C133.073 30.428 133.74 31.5165 135.081 32.398C136.423 33.2796 138.301 33.7242 140.716 33.7242C143.13 33.7242 145.07 33.2796 146.534 32.3827C147.998 31.4858 148.726 30.3207 148.726 28.8796C148.718 27.4385 148.22 26.3653 147.216 25.6448ZM84.0367 29.4699H75.3748V28.1054H82.6263C82.7873 28.1054 82.9252 28.0441 83.0402 27.9291C83.1552 27.8141 83.2165 27.6761 83.2165 27.5152V24.6943C83.2165 24.5333 83.1552 24.3953 83.0402 24.2803C82.9252 24.1654 82.7873 24.104 82.6263 24.104H75.3748V22.7396H83.8221C83.9831 22.7396 84.1211 22.6783 84.236 22.5633C84.351 22.4483 84.4123 22.3103 84.4123 22.1493V19.0908C84.4123 18.9298 84.351 18.7919 84.236 18.6769C84.1211 18.5619 83.9831 18.5006 83.8221 18.5006H70.3155C70.1546 18.5006 70.0166 18.5619 69.9016 18.6769C69.7866 18.7919 69.7253 18.9298 69.7253 19.0908V33.1186C69.7253 33.2796 69.7866 33.4176 69.9016 33.5326C70.0166 33.6475 70.1546 33.7089 70.3155 33.7089H84.0367C84.1977 33.7089 84.3357 33.6475 84.4507 33.5326C84.5657 33.4176 84.627 33.2796 84.627 33.1186V30.0601C84.627 29.8991 84.5657 29.7611 84.4507 29.6462C84.3357 29.5312 84.1977 29.4699 84.0367 29.4699ZM65.6474 20.0031C64.4439 19.0066 62.8188 18.5007 60.7645 18.5007H52.6391C52.4781 18.5007 52.3401 18.562 52.2251 18.677C52.1101 18.792 52.0488 18.93 52.0488 19.0909V33.1188C52.0488 33.2797 52.1101 33.4177 52.2251 33.5327C52.3401 33.6477 52.4781 33.709 52.6391 33.709H57.3073C57.4683 33.709 57.6063 33.6477 57.7213 33.5327C57.8363 33.4177 57.8976 33.2797 57.8976 33.1188V28.9487H60.7645C63.1944 28.9487 64.9192 28.4888 65.931 27.569C66.9428 26.6491 67.4488 25.4073 67.4488 23.8435C67.4488 22.2798 66.8432 20.9996 65.6474 20.0031ZM61.485 24.6254C61.2781 24.8324 61.0021 24.932 60.6725 24.932H57.9129V22.5404H60.6725C61.0174 22.5404 61.2934 22.6554 61.5004 22.8854C61.6997 23.1153 61.807 23.4143 61.807 23.7745C61.807 24.1348 61.692 24.4261 61.485 24.6254ZM102.541 23.759C102.541 25.729 101.782 27.1548 100.265 28.0363L102.932 33.0496C102.963 33.1032 102.978 33.1875 102.978 33.2872C102.978 33.3869 102.932 33.4865 102.84 33.5785C102.748 33.6705 102.633 33.7165 102.503 33.7165H97.5741C97.1371 33.7165 96.8382 33.5325 96.6619 33.1722L94.7532 28.8719H92.9288V33.1262C92.9288 33.2872 92.8675 33.4252 92.7525 33.5402C92.6375 33.6551 92.4995 33.7165 92.3386 33.7165H87.6473C87.4863 33.7165 87.3483 33.6551 87.2334 33.5402C87.1184 33.4252 87.057 33.2872 87.057 33.1262V19.0984C87.057 18.9374 87.1184 18.7994 87.2334 18.6845C87.3483 18.5695 87.4863 18.5082 87.6473 18.5082H96.087C98.0723 18.5082 99.6437 18.9758 100.801 19.9186C101.959 20.8538 102.541 22.1339 102.541 23.759ZM95.6424 24.8398C95.9567 24.8398 96.2019 24.7325 96.3783 24.5256C96.5546 24.3186 96.6466 24.0503 96.6466 23.736C96.6466 23.4217 96.5622 23.1381 96.3936 22.9005C96.2249 22.6628 95.972 22.5402 95.6424 22.5402H92.9288V24.8398H95.6424ZM121.399 18.5006H117.428C117.022 18.5006 116.707 18.6999 116.493 19.0908L113.649 24.3033L110.805 19.0908C110.59 18.6999 110.276 18.5006 109.87 18.5006H105.899C105.738 18.5006 105.6 18.5619 105.485 18.6769C105.37 18.7919 105.309 18.9298 105.309 19.0908V33.1186C105.309 33.2796 105.37 33.4176 105.485 33.5326C105.6 33.6475 105.738 33.7089 105.899 33.7089H109.832C109.992 33.7089 110.13 33.6475 110.245 33.5326C110.36 33.4176 110.422 33.2796 110.422 33.1186V26.3883L112.008 29.5159C112.054 29.6155 112.154 29.7305 112.315 29.8608C112.476 29.9911 112.675 30.0524 112.921 30.0524H114.4C114.576 30.0524 114.745 30.0064 114.921 29.9145C115.098 29.8225 115.228 29.6845 115.312 29.5159L116.899 26.3883V33.1186C116.899 33.2796 116.96 33.4176 117.075 33.5326C117.19 33.6475 117.328 33.7089 117.489 33.7089H121.422C121.583 33.7089 121.721 33.6475 121.836 33.5326C121.951 33.4176 122.012 33.2796 122.012 33.1186V19.0908C122.012 18.9298 121.951 18.7919 121.836 18.6769C121.721 18.5619 121.552 18.5006 121.399 18.5006ZM125.73 18.5006H130.421C130.582 18.5006 130.72 18.5619 130.835 18.6769C130.95 18.7919 131.011 18.9298 131.011 19.0908V29.2476V29.8378V33.1186C131.011 33.2796 130.95 33.4176 130.835 33.5326C130.72 33.6475 130.582 33.7089 130.421 33.7089H125.73C125.569 33.7089 125.431 33.6475 125.316 33.5326C125.201 33.4176 125.139 33.2796 125.139 33.1186V19.0908C125.139 18.9298 125.201 18.7919 125.316 18.6769C125.431 18.5619 125.569 18.5006 125.73 18.5006ZM158.921 18.4851C161.313 18.4851 163.26 19.0141 164.754 20.0719C166.249 21.1297 167 22.7088 167 24.8168V27.4001C167 28.8565 166.633 30.0677 165.912 31.0412C165.191 32.0147 164.241 32.7123 163.068 33.1185C161.895 33.5248 160.515 33.7318 158.921 33.7318C157.327 33.7318 155.947 33.5325 154.774 33.1185C153.601 32.7046 152.651 32.0147 151.93 31.0412C151.202 30.0677 150.842 28.8335 150.842 27.3541V24.8551C150.842 22.7241 151.585 21.1297 153.088 20.0719C154.59 19.0141 156.529 18.4851 158.921 18.4851ZM160.538 29.0252C160.937 28.7185 161.136 28.2816 161.136 27.722V24.4642C161.136 23.9046 160.937 23.4677 160.538 23.1611C160.14 22.8545 159.603 22.7011 158.921 22.7011C158.239 22.7011 157.702 22.8545 157.304 23.1534C156.905 23.46 156.706 23.8893 156.706 24.4489V27.7374C156.706 28.2969 156.905 28.7339 157.304 29.0328C157.702 29.3318 158.239 29.4851 158.921 29.4851C159.603 29.4851 160.14 29.3318 160.538 29.0252Z" fill="#78CBFA"/>
</svg>
